<?xml version="1.0" encoding="utf-8"?>
<!-- Generator: Adobe Illustrator 18.0.0, SVG Export Plug-In . SVG Version: 6.00 Build 0)  -->
<!DOCTYPE svg PUBLIC "-//W3C//DTD SVG 1.1//EN" "http://www.w3.org/Graphics/SVG/1.1/DTD/svg11.dtd">
<svg version="1.1" id="Layer_1" xmlns="http://www.w3.org/2000/svg" xmlns:xlink="http://www.w3.org/1999/xlink" x="0px" y="0px"
	 viewBox="0 0 632.1 184.2" enable-background="new 0 0 632.1 184.2" xml:space="preserve">
<g>
	<path fill-rule="evenodd" clip-rule="evenodd" fill="#EF4123" d="M579.2,50.9c0.3-0.4,0.6-0.8,1-1.2c8.1-9.2,16.2-18.3,24.2-27.6
		c3.1-3.5,7.1-3.9,10.9-1.7c4,2.3,5.6,6.4,4.2,10.5c-0.5,1.6-1.4,3-2.6,4.2c-6.4,6.6-12.7,13.3-19,19.9c-0.4,0.4-0.8,0.8-1.3,1.4
		c0.5,0.6,0.9,1.1,1.4,1.6c7.5,8.6,15,17.2,22.6,25.8c1.3,1.4,2.3,3,2.7,4.8c0.6,2.5,0.3,4.8-1.2,6.9c-2.1,2.9-4.9,4.7-8.6,4.7
		c-2.2,0-3.9-0.8-5.3-2.4c-7.5-8.7-15-17.4-22.5-26.1c-1.5-1.7-3-3.5-4.5-5.2c-0.3-0.4-0.7-0.8-1.1-1.2c-0.6,0.6-0.4,1.3-0.4,1.9
		c0,7.6,0,15.3,0,22.9c0,0.6,0,1.3,0,1.9c0.3,4.1-1.4,6.6-6.2,7.8c-2.8,0.7-5.6,0.2-8.2-1.3c-1.9-1.2-2.8-2.8-2.9-5
		c0-0.4,0-0.7,0-1.1c0-21.6,0-43.3,0-64.9c0-4.7,2.6-7.5,7.4-7.9c1.8-0.1,3.5,0.1,5.1,0.9c2.6,1.2,3.9,3.2,4,6.1c0,1.5,0,3,0,4.5
		c0,6,0,12.1,0,18.1c0,0.6,0,1.1,0,1.7C578.9,50.8,579.1,50.8,579.2,50.9z"/>
	<path fill-rule="evenodd" clip-rule="evenodd" fill="#EF4123" d="M530.4,84.3c-9.6,0-19.1,0-28.7,0c-0.5,2.1-0.9,4.2-1.5,6.3
		c-0.4,1.6-0.9,3.2-1.7,4.6c-1.6,2.9-4.1,4.7-7.5,5.1c-3.9,0.4-7.3-2.4-7.7-6.6c-0.4-3.4,0.3-6.6,1.4-9.7c3.6-10.8,7.3-21.6,11-32.4
		c2.5-7.5,5-15,7.6-22.4c0.9-2.8,2.5-5.2,4.5-7.3c3.9-3.9,8.8-4.5,13.4-1.6c3.4,2.1,5.5,5.1,6.9,8.8c2.3,6.2,4.6,12.4,6.8,18.6
		c4.6,12.4,9.1,24.8,13.7,37.2c0.9,2.5,1.2,5.1,0.9,7.7c-0.3,2.3-1.3,4.3-3.1,5.8c-2.2,1.9-4.7,2.2-7.3,1.1
		c-1.7-0.7-3.1-1.9-4.1-3.4c-1.2-1.6-2-3.4-2.6-5.3C531.8,88.6,531.1,86.4,530.4,84.3z M516.4,39.1c-0.1,0-0.3,0-0.4,0
		c-3,9.5-6.1,18.9-9.1,28.5c6.3,0,12.3,0,18.6,0C522.4,57.9,519.4,48.5,516.4,39.1z"/>
	<path fill-rule="evenodd" clip-rule="evenodd" fill="#F58220" d="M260.3,37.7c0,4.9-0.1,9.6,0,14.4c0.8,0,1.5,0.1,2.1,0.1
		c5.3,0,10.7,0.1,16,0c3.1-0.1,4.9,1.3,6.1,4c1.3,3,1.3,5.9-0.1,8.8c-1,2.1-2.7,3.2-5.1,3.2c-5.6,0-11.2,0-16.8,0
		c-0.6,0-1.3,0-1.8,0c-0.5,1.4-0.6,13.7-0.1,15.4c0.6,0,1.2,0,1.8,0c5.4,0,10.9,0,16.3,0c0.9,0,1.8,0,2.7,0.1c4.9,0.8,7.4,5.7,6,10
		c-0.3,1.1-0.8,2.2-1.5,3.2c-1.1,1.8-2.8,2.7-5,2.7c-10.4,0-20.7,0-31.1,0c-3.2,0-6.1-3-6.1-6.2c0-7.1,0-14.2,0-21.3
		c0-14.5,0-28.9,0-43.4c0-1,0.1-2,0.3-3c0.7-2.7,3-4.6,5.7-4.9c0.7-0.1,1.5-0.1,2.2-0.1c8.7,0,17.3,0,26,0c0.9,0,1.7,0,2.6,0.1
		c1.8,0.3,3.2,1.2,4.2,2.7c2.1,3.3,2.5,6.9,0.8,10.5c-1.1,2.4-2.9,3.5-5.6,3.5c-5.9,0-11.8,0-17.6,0
		C261.9,37.7,261.3,37.7,260.3,37.7z"/>
	<path fill-rule="evenodd" clip-rule="evenodd" fill="#F58220" d="M203,52.1c0.7,0,1.3,0.1,1.9,0.1c5.2,0,10.4,0.1,15.5,0
		c4.4-0.2,6.1,2.1,7.1,5.5c0.7,2.5,0.5,5.1-0.7,7.5c-1,2-2.6,3-4.9,3c-5.6,0-11.1,0-16.7,0c-0.4,0-0.9,0-1.3,0
		c-1.1,0.1-1.2,0.2-1.2,1.2c0,4.3,0,8.7,0,13c0,1.1,0.2,1.2,1.4,1.2c3,0,6.1,0,9.1,0c3.2,0,6.4-0.1,9.6,0.1c3.3,0.1,5.6,1.7,6.9,4.8
		c1.3,3.2,0.1,7.8-2.5,9.9c-0.9,0.7-1.9,1.2-3.1,1.2c-0.4,0-0.9,0-1.3,0c-9.9,0-19.8-0.1-29.6,0c-2.7,0-4.5-1.1-5.9-3.1
		c-0.6-0.9-1-1.9-1-3c0-0.5,0-1.1,0-1.6c0-20.8,0-41.7,0-62.5c0-0.9,0-1.7,0.1-2.6c0.3-3.3,2.9-5.8,6.2-6.1c0.6-0.1,1.2-0.1,1.8-0.1
		c8.8,0,17.6,0,26.4,0c0.8,0,1.6,0,2.4,0.1c1.8,0.3,3.2,1.3,4.1,2.8c2.2,3.5,2.4,7.1,0.6,10.8c-1.1,2.2-2.9,3.2-5.3,3.2
		c-5.9,0-11.9,0-17.8,0c-0.6,0-1.3,0-1.8,0C202.7,39,202.6,49.9,203,52.1z"/>
	<path fill-rule="evenodd" clip-rule="evenodd" fill="#EF4123" d="M446.8,39.1c-0.4,1.4-0.9,2.7-1.3,4.1
		c-4.9,16.2-9.9,32.3-14.8,48.5c-0.9,3.1-2.6,5.6-5.5,7.2c-4.6,2.6-9.4,0.4-10.4-4.8c-0.8-3.8-0.2-7.6,1.1-11.2
		c3.1-9.3,6.2-18.5,9.4-27.8c2.9-8.7,5.8-17.4,8.8-26.1c1-2.8,2.5-5.3,4.6-7.4c3.8-3.8,8.6-4.3,13.2-1.6c3.3,2,5.5,4.8,6.9,8.4
		c6,16.2,11.9,32.3,17.9,48.5c1,2.8,2,5.5,3,8.3c1,2.8,1.2,5.6,0.5,8.5c-0.5,2-1.6,3.6-3.2,4.8c-2.2,1.6-4.5,1.8-7,0.8
		c-1.7-0.7-3-1.8-4.1-3.3c-1.2-1.6-2-3.4-2.6-5.3c-5.1-16.6-10.3-33.1-15.4-49.7c-0.2-0.7-0.5-1.4-0.7-2.1
		C447,39.1,446.9,39.1,446.8,39.1z"/>
	<path fill-rule="evenodd" clip-rule="evenodd" fill="#F58220" d="M324.7,39c-0.2,0.5-0.4,1.1-0.6,1.6
		c-5.2,16.9-10.4,33.9-15.5,50.8c-0.9,3-2.4,5.6-5.2,7.3c-4.8,3-9.9,0.6-10.8-5c-0.6-3.7,0-7.2,1.2-10.7c2.9-8.8,5.9-17.6,8.9-26.4
		c3.1-9.1,6.1-18.2,9.2-27.3c1-2.9,2.5-5.4,4.7-7.5c3.7-3.6,8.5-4.3,12.9-1.6c3.3,2,5.6,4.8,6.9,8.4c2.7,7.4,5.5,14.8,8.2,22.2
		c4.2,11.5,8.5,23,12.7,34.5c1,2.8,1.2,5.6,0.5,8.5c-0.5,1.9-1.5,3.5-3.1,4.7c-2.2,1.7-4.6,1.9-7.1,0.8c-1.6-0.7-3-1.7-3.9-3.2
		c-0.9-1.5-1.9-3.1-2.4-4.8c-5.3-16.7-10.5-33.5-15.7-50.3c-0.2-0.7-0.5-1.4-0.7-2.1C324.9,39,324.8,39,324.7,39z"/>
	<path fill-rule="evenodd" clip-rule="evenodd" fill="#F58220" d="M371.8,93.6c0.4-1.9,0.7-3.9,1.2-5.9c4.6-21.5,9.1-43.1,13.8-64.6
		c0.3-1.5,0.8-3.1,1.5-4.5c0.9-1.9,2.6-3.1,4.7-3.4c4.5-0.8,7.9,3.4,7.2,7.5c-0.4,2.6-1,5.2-1.6,7.8c-3.3,15.4-6.6,30.9-9.8,46.3
		c-1.3,6-2.5,12-3.8,18c-0.5,2.4-1.5,4.4-3.9,5.5c-3.7,1.6-7.7-0.3-8.7-4.2C372,95.3,371.9,94.5,371.8,93.6z"/>
	<g>
		<path fill-rule="evenodd" clip-rule="evenodd" fill="#EF4123" d="M369,129.8c0.2-1.7,0.2-3.5,0.7-5.2c1.2-5.1,7.5-6.9,11.4-3.4
			c1.3,1.2,1.9,2.7,2,4.4c0.3,2.9,0.4,5.8-0.1,8.7c-0.4,2.5-1.7,4.4-4.2,5.1c-2.7,0.8-5.2,0.5-7.5-1.4c-1.4-1.2-1.8-2.9-2-4.6
			c-0.1-1.2-0.2-2.4-0.2-3.6C369.1,129.8,369.1,129.8,369,129.8z M372.1,130.1c0,2,0,3.7,0.7,5.4c0.6,1.5,1.7,2.3,3.3,2.4
			c1.5,0,2.7-0.5,3.5-1.9c0.7-1.3,0.9-4.4,0.4-5.9C377.5,130.1,374.9,130.1,372.1,130.1z M372,128.4c2.9,0,5.5,0,8.2,0
			c0.2-1.6,0.2-3.1-0.3-4.5c-0.7-1.9-1.9-2.7-4-2.6c-1.8,0.1-3.1,1-3.4,3C372.2,125.6,372.2,126.9,372,128.4z"/>
		<path fill-rule="evenodd" clip-rule="evenodd" fill="#EF4123" d="M524.9,159.2c0.9,0,1.7,0,2.7,0c0,0.6,0,1.2,0,1.7
			c0,1.7,0,3.3,0,5c0,1.4,0.8,2.2,2,2.5c1.3,0.2,2.5-0.4,3-1.7c0.6-1.5,0.5-3.1,0.2-4.6c-0.3-1.8-1.1-3.5-2-5
			c-0.3-0.5-0.6-1-0.8-1.5c2.1-0.6,2.5-0.5,3.7,1.2c1.6,2.4,2.4,5,2,7.8c-0.1,1.1-0.5,2.3-1,3.2c-1.5,2.7-5,3.3-7.6,1.5
			c-0.3-0.2-0.6-0.4-0.9-0.6c-1.1,1-2.2,1.7-3.8,1.6c-2.7-0.1-4.6-1.4-5.3-4c-0.7-2.3-0.5-4.6,0.3-6.9c0.4-0.9,0.9-1.7,1.3-2.6
			c0.8-1.6,2-2,3.8-1.4c-0.3,0.5-0.6,1-0.8,1.5c-1.3,2.3-2.3,4.7-2.2,7.4c0,0.7,0.2,1.5,0.4,2.1c0.3,0.9,1,1.6,2,1.8
			c1.6,0.4,3-0.5,3-2.2c0.1-1.7,0-3.4,0-5.1C524.9,160.4,524.9,159.8,524.9,159.2z"/>
		<path fill-rule="evenodd" clip-rule="evenodd" fill="#EF4123" d="M501.6,169.9c-1,0-1.7,0-2.5,0c-0.3-1.1-0.4-16.6-0.1-19.6
			c0.8,0,1.6,0,2.6,0c0.1,3,0,6,0.1,9.4c0.6-0.6,1-0.9,1.4-1.2c2.3-2.3,4.7-4.5,6.9-7c1.2-1.4,2.6-1.5,4.1-1.3
			c-2.5,2.6-5.1,5.1-7.7,7.8c1.5,2.1,3,4,4.4,5.9c1.4,1.9,2.8,3.8,4.5,6c-1.2,0-2,0.1-2.9,0c-0.4-0.1-0.9-0.5-1.2-0.8
			c-1.9-2.5-3.7-5-5.5-7.5c-0.3-0.4-0.7-0.9-1.1-1.4c-0.9,0.9-1.8,1.7-2.5,2.5c-0.3,0.3-0.3,0.9-0.3,1.3
			C501.6,165.9,501.6,167.8,501.6,169.9z"/>
		<path fill-rule="evenodd" clip-rule="evenodd" fill="#EF4123" d="M544.5,155.3c-0.8-0.6-1.6-1.2-2.5-1.8c-0.5-0.4-1-0.8-1.5-1.1
			c-0.8-0.5-1-1.1-0.6-2.2c3.5-0.1,7.1,0,10.9-0.1c0.1,0.5,0.1,0.9,0.2,1.5c-2.6,0-5,0.1-7.5,0.1c0,0.1-0.1,0.2-0.1,0.4
			c0.6,0.4,1.2,0.8,1.8,1.2c1.4,1,2.9,1.9,4.2,3c3.5,2.9,3.6,7.1,2.2,10.5c-0.9,2.2-2.7,3.5-5.1,3.5c-1.3,0-2.6,0-3.9-0.3
			c-2-0.5-3.2-1.9-3.7-3.8c-0.5-1.8-0.5-3.6-0.2-5.4c0.5-2.6,2.1-4.2,4.6-4.9c0.3-0.1,0.7-0.1,1.1-0.2
			C544.4,155.5,544.5,155.4,544.5,155.3z M549.6,162.7c-0.2-0.9-0.3-2-0.7-3.1c-0.6-1.7-1.9-2.5-3.6-2.4c-1.7,0.1-3.3,1.3-3.7,2.9
			c-0.4,2-0.5,4,0.1,6c0.5,1.8,1.9,2.7,3.7,2.7c1.8,0,3.2-1,3.7-2.8C549.3,165,549.4,164,549.6,162.7z"/>
		<path fill-rule="evenodd" clip-rule="evenodd" fill="#EF4123" d="M388.7,170c-1,0-1.8,0-2.7,0c-0.7-1.9-1.3-3.7-2-5.6
			c-2.8,0-5.6,0-8.5,0c-0.6,1.8-1.3,3.7-1.9,5.6c-0.9,0-1.7,0-2.7,0c0.1-0.4,0.1-0.8,0.3-1.2c2.1-5.8,4.2-11.5,6.3-17.3
			c0.5-1.3,0.5-1.3,1.9-1.3c2.6,0,2.1-0.3,2.9,2c2,5.4,4,10.8,6,16.2C388.3,168.9,388.5,169.3,388.7,170z M379.8,152.4
			c-0.1,0-0.3,0-0.4,0c-1.1,3.2-2.1,6.5-3.2,9.7c1.7,0.4,5.8,0.3,6.9-0.1C382,158.8,380.9,155.6,379.8,152.4z"/>
		<path fill-rule="evenodd" clip-rule="evenodd" fill="#EF4123" d="M308.5,137.3c3.4,0,6.7,0,10.2,0c0,0.7,0.1,1.2,0.1,1.7
			c-1.2,0.4-11.4,0.4-13,0.1c0-6.5,0-12.9,0-19.5c4.3,0,8.5,0,12.8,0c0,0.5,0,1.1,0.1,1.8c-1.8,0.3-3.5,0.1-5.2,0.1
			c-1.6,0-3.3,0-5,0c0,2.2,0,4.2,0,6.4c3.1,0,6.2,0,9.4,0c0,0.7,0,1.2,0,1.9c-3.1,0-6.2,0.1-9.4,0.1
			C308.5,132.4,308.5,134.7,308.5,137.3z"/>
		<path fill-rule="evenodd" clip-rule="evenodd" fill="#EF4123" d="M189.4,121.5c0,2.2,0,4.2,0,6.4c3.1,0,6.1,0,9.2,0
			c0.1,0.7,0.1,1.2,0.1,1.9c-3.2,0-6.3,0.1-9.4,0.1c0,2.5,0,4.8,0,7.3c3.4,0,6.7,0,10.2,0c0,0.7,0,1.3,0,1.9c-4.3,0-8.5,0-12.9,0
			c0-6.5,0-13,0-19.6c4.2,0,8.4,0,12.7,0c0,0.6,0,1.1,0,1.8C196.1,121.6,192.9,121.5,189.4,121.5z"/>
		<path fill-rule="evenodd" clip-rule="evenodd" fill="#EF4123" d="M405.1,138.6c0,1.9,0,3.8,0,5.7c-1,0-1.7,0-2.6,0
			c0-0.5-0.1-0.9-0.1-1.4c0-3.6,0-7.2,0-10.7c0-1.2,0.1-2.4,0.4-3.5c0.5-2.1,1.9-3.6,4-4.1c1.3-0.3,2.8-0.4,4.2-0.2
			c2.6,0.4,4.1,2,4.7,4.5c0.5,2,0.5,4.1,0,6.2c-0.8,3.5-4,5.4-7.7,4.5C407.1,139.3,406.2,138.9,405.1,138.6z M413.3,132.1
			c-0.1-1.2-0.1-2.3-0.4-3.3c-0.5-2.2-2.1-3.2-4.3-2.9c-1.9,0.2-3.2,1.6-3.4,3.7c-0.1,1.4-0.1,2.9,0,4.4c0,0.5,0.2,1,0.3,1.5
			c0.5,1.7,1.8,2.6,3.7,2.6c1.9,0,3.1-0.8,3.6-2.6C413.1,134.3,413.1,133.2,413.3,132.1z"/>
		<path fill-rule="evenodd" clip-rule="evenodd" fill="#EF4123" d="M242.3,144.3c-1,0-1.7,0-2.4,0c-0.1-0.4-0.2-0.8-0.2-1.2
			c0-3.9,0-7.8,0-11.7c0-1,0.1-2,0.4-2.9c0.6-2.1,1.9-3.6,4.1-4c1.4-0.3,2.8-0.3,4.2-0.1c2.2,0.3,3.7,1.7,4.4,3.9
			c0.7,2.3,0.7,4.6,0.1,6.9c-0.9,3.5-4,5.2-7.6,4.4c-0.9-0.2-1.8-0.6-3-1C242.3,140.5,242.3,142.3,242.3,144.3z M242.5,131.8
			c-0.1,0-0.1,0-0.2,0c0.1,1.2,0.2,2.4,0.5,3.5c0.5,1.9,1.8,2.7,3.7,2.7c1.9,0,3.1-0.9,3.6-2.7c0.6-2.1,0.6-4.3,0.1-6.5
			c-0.5-2.1-1.9-3.1-4-2.9c-2,0.1-3.5,1.5-3.7,3.6C242.4,130.2,242.5,131,242.5,131.8z"/>
		<path fill-rule="evenodd" clip-rule="evenodd" fill="#EF4123" d="M295.2,174.9c-1,0-1.8,0-2.6,0c0-6.5,0-13,0-19.6
			c0.8,0,1.6,0,2.6,0c0,0.6,0,1.1,0,1.6c0,2.8,0,5.5,0,8.3c0,2,1,3.1,3,3.3c1.9,0.1,3.4-0.9,3.6-2.8c0.1-0.6,0.1-1.2,0.1-1.9
			c0-2.8,0-5.5,0-8.4c0.9,0,1.7-0.1,2.6-0.1c0,0.7,0.1,1.2,0.1,1.7c0,3.1,0,6.1,0,9.2c0,1.1,0.2,2.1,1.6,2.3c0,0.6,0,1.1,0,1.6
			c-1.6,0.5-2.9,0.2-4.1-1c-2.1,1.5-4.3,2-6.9,0.3C295.2,171.3,295.2,173,295.2,174.9z"/>
		<path fill-rule="evenodd" clip-rule="evenodd" fill="#EF4123" d="M545.8,138.2c-2.9,1.6-3.8,1.7-6.9,0.4c0,1-0.1,1.9-0.1,2.8
			c0,0.9,0,1.8,0,2.8c-0.9,0-1.6,0-2.3,0c-0.3-1.1-0.4-17.2-0.1-19.5c0.8,0,1.6,0,2.6,0c0,0.5,0,1,0,1.5c0,2.8,0,5.6,0,8.4
			c0,1.9,0.9,2.9,2.6,3.1c2.1,0.3,3.5-0.5,3.9-2.4c0.1-0.5,0.2-1.1,0.2-1.7c0-2.4,0-4.9,0-7.3c0-0.5,0-1,0-1.6c0.9,0,1.7,0,2.6,0
			c0,0.6,0.1,1.1,0.1,1.6c0,3,0,6,0,9c0,1.2,0.2,2.2,1.6,2.4c0,0.6,0,1.1,0,1.6C547.8,139.6,547.5,139.6,545.8,138.2z"/>
		<path fill-rule="evenodd" clip-rule="evenodd" fill="#EF4123" d="M225.4,125.5c0.6-1,0.6-1,2.9-0.9c0,0.5,0.1,1.1,0.1,1.6
			c0,3.1,0,6.1,0,9.2c0,1.1,0.2,2.1,1.6,2.3c0,0.6,0,1,0,1.5c-0.8,0.8-2.7,0.4-4.1-0.9c-0.2,0.1-0.5,0.2-0.8,0.4
			c-4.1,2.5-8.6,0.6-9.6-4.1c-0.4-2-0.3-4.1,0.3-6c1.1-3.9,4.8-5.4,8.4-3.6C224.6,125,224.9,125.2,225.4,125.5z M225.7,131.8
			c-0.1-1-0.2-2-0.4-3c-0.4-1.8-1.7-2.9-3.4-2.9c-1.7,0-3.1,1-3.5,2.7c-0.5,2.1-0.6,4.2-0.1,6.3c0.4,1.9,1.7,3,3.5,2.9
			c1.7,0,3-1.2,3.4-3.1C225.6,133.9,225.6,132.9,225.7,131.8z"/>
		<path fill-rule="evenodd" clip-rule="evenodd" fill="#EF4123" d="M469.9,119.6c2.4,6.5,4.7,12.9,7.1,19.5c-1,0-1.8,0-2.8,0
			c-2-5.6-4-11.2-6.2-17.1c-0.4,0.9-0.6,1.4-0.8,1.9c-1.6,4.5-3.3,9.1-4.9,13.6c-0.7,2-0.8,2-3.3,1.5c2.3-6.5,4.7-12.9,7.1-19.5
			C467.4,119.6,468.6,119.6,469.9,119.6z"/>
		<path fill-rule="evenodd" clip-rule="evenodd" fill="#EF4123" d="M294.2,137.9c0,0.4,0,0.9,0,1.3c-2,0.6-2.5,0.5-4.1-1
			c-0.2,0.1-0.5,0.3-0.8,0.4c-4.1,2.5-8.8,0.4-9.5-4.4c-0.2-1.8-0.1-3.8,0.3-5.6c1-4.2,4.8-5.8,8.6-3.8c0.3,0.2,0.6,0.3,1,0.5
			c0.2-0.3,0.3-0.6,0.4-0.9c0.8,0,1.5,0,2.5,0c0,0.6,0,1.2,0,1.7c0,3,0,6,0,9C292.7,137,292.7,137,294.2,137.9z M290.1,131.9
			c-0.1-0.9-0.2-2-0.4-3c-0.3-1.8-1.6-2.9-3.3-3c-1.8,0-3.2,1-3.6,2.8c-0.5,2-0.5,4.1-0.1,6.2c0.4,1.9,1.7,3,3.5,3
			c1.8,0,3.1-1.1,3.5-3C289.9,134,289.9,133,290.1,131.9z"/>
		<path fill-rule="evenodd" clip-rule="evenodd" fill="#EF4123" d="M233.3,169.9c-1,0-1.8,0-2.7,0c-2-5.6-4-11.2-6.1-16.7
			c-0.1,0-0.3,0-0.4,0c-2,5.6-4,11.2-6.1,16.8c-0.9,0-1.7,0-2.7,0c0.2-0.6,0.3-1.1,0.5-1.5c2.1-5.6,4.1-11.2,6.2-16.8
			c0.5-1.4,0.5-1.4,2-1.4c2.5,0,2-0.3,2.9,2.1c1.9,5.3,3.9,10.5,5.8,15.8C232.9,168.6,233.1,169.2,233.3,169.9z"/>
		<path fill-rule="evenodd" clip-rule="evenodd" fill="#EF4123" d="M587.6,156.2c0.7-1.5,1.8-0.8,2.9-0.8c0,0.6,0,1.2,0,1.7
			c0,3,0,6,0,9c0,1.6,0.1,1.7,1.6,2.4c0,0.4,0,0.9,0,1.3c-1.7,0.8-2.4,0.7-4.1-0.9c-0.2,0.1-0.5,0.2-0.7,0.4
			c-4.2,2.6-8.9,0.5-9.6-4.4c-0.2-1.7-0.1-3.6,0.2-5.3c1-4.9,5.7-5.7,8.8-3.9C586.9,155.9,587.2,156,587.6,156.2z M587.9,162.7
			c-0.1-1.1-0.2-2.1-0.4-3.1c-0.4-1.8-1.7-3-3.4-3c-1.6,0-3,1.1-3.4,2.8c-0.5,2.1-0.5,4.2-0.1,6.3c0.4,1.8,1.7,2.9,3.3,2.9
			c1.7,0,3.1-1,3.5-2.9C587.7,164.8,587.8,163.7,587.9,162.7z"/>
		<path fill-rule="evenodd" clip-rule="evenodd" fill="#EF4123" d="M290,155.4c0,0.4,0,0.8,0,1.3c-1,0.1-1.9,0.1-3,0.2
			c1.3,2.1,1.4,4.3,1.4,6.5c0,0.3,0,0.5,0,0.8c-0.4,4.2-2.9,6.3-6.7,6.2c-0.9,0-1.9-0.1-2.8-0.3c-2.2-0.6-3.5-2.1-4-4.2
			c-0.5-2-0.5-4,0-6c0.7-3,2.9-4.9,6.3-4.9C284,154.9,286.9,155.2,290,155.4z M277.3,162.6c0.2,1.2,0.2,2.5,0.6,3.7
			c0.5,1.6,1.9,2.5,3.6,2.5c1.7,0,3.1-0.9,3.6-2.5c0.7-2.4,0.7-4.8,0-7.2c-0.5-1.7-1.8-2.5-3.6-2.5c-1.9,0-3.2,0.9-3.7,2.5
			C277.5,160.2,277.4,161.4,277.3,162.6z"/>
		<path fill-rule="evenodd" clip-rule="evenodd" fill="#EF4123" d="M533.7,124.5c0,0.5,0,0.9,0,1.4c-1,0.1-1.9,0.1-3,0.2
			c0.2,0.4,0.3,0.7,0.4,1c0.2,0.4,0.4,0.9,0.5,1.3c0.5,2.4,0.6,4.8-0.1,7.2c-0.6,2-2,3.2-4,3.8c-1.6,0.4-3.3,0.4-4.9,0
			c-2.1-0.6-3.5-2-4.1-4.1c-0.5-2.1-0.5-4.3,0-6.5c0.7-2.7,2.9-4.5,5.7-4.6c1.1,0,2.2,0.1,3.3,0.2c1,0.1,2,0.1,2.9,0.1
			C531.6,124.5,532.6,124.5,533.7,124.5z M521.1,131.9c0.1,0.9,0.1,1.9,0.2,2.9c0.3,2,1.7,3.2,3.6,3.2c2.2,0.1,3.5-0.9,3.9-3
			c0.5-2,0.5-4.1,0-6.2c-0.5-2.1-1.9-3.1-3.9-3c-2.1,0.1-3.4,1.3-3.7,3.3C521.1,130.1,521.1,131,521.1,131.9z"/>
		<path fill-rule="evenodd" clip-rule="evenodd" fill="#EF4123" d="M442.3,173.4c0,0.6,0,1,0,1.4c-0.1,0.1-0.2,0.2-0.3,0.3
			c-1.7,0.4-3.1-0.1-4.1-1.7c-0.8-1.3-1.4-2.8-2.1-4.2c-0.2-0.5-0.5-1-0.9-1.7c-1.5,2.7-2.9,5.1-4.3,7.6c-0.8,0-1.6,0-2.5,0
			c0.2-0.5,0.4-0.9,0.6-1.3c1.5-2.6,2.9-5.2,4.4-7.7c0.5-0.8,0.5-1.4,0-2.1c-0.8-1.5-1.6-3-2.3-4.6c-0.6-1.3-1.3-2.2-2.8-2.4
			c0-0.5,0-1,0-1.4c0.2-0.1,0.3-0.2,0.4-0.2c1.8-0.3,3.1,0.5,4,2c0.7,1.2,1.3,2.5,1.9,3.7c0.2,0.4,0.5,0.9,0.8,1.5
			c0.3-0.5,0.6-0.8,0.8-1.1c0.9-1.5,1.8-3.1,2.7-4.6c1-1.7,1.1-1.7,3.2-1.2c-0.2,0.5-0.5,0.9-0.7,1.4c-1.3,2.4-2.6,4.7-4,7
			c-0.5,0.8-0.6,1.5-0.1,2.3c0.8,1.6,1.6,3.2,2.3,4.8C440,172.2,440.7,173.2,442.3,173.4z"/>
		<path fill-rule="evenodd" clip-rule="evenodd" fill="#EF4123" d="M492.8,131.9c-0.1,0.9-0.1,1.7-0.2,2.4c-0.4,3-2.2,5-5.2,5.3
			c-1.4,0.2-2.9,0-4.3-0.3c-2.1-0.5-3.3-2.1-3.8-4.2c-0.4-2-0.5-3.9,0-5.9c0.7-3,2.9-5,6.1-5.1c0.9,0,1.9,0,2.8,0.2
			c2.5,0.6,3.9,2.3,4.4,4.7C492.7,130.1,492.7,131.1,492.8,131.9z M490,132c-0.1-1.1-0.2-2.2-0.4-3.3c-0.5-1.9-1.7-2.8-3.6-2.9
			c-1.9,0-3.5,1-3.8,2.8c-0.5,2.3-0.5,4.7,0.1,6.9c0.5,1.7,1.8,2.5,3.7,2.5c1.9,0,3.1-0.9,3.5-2.7C489.8,134.2,489.8,133.1,490,132z
			"/>
		<path fill-rule="evenodd" clip-rule="evenodd" fill="#EF4123" d="M588.1,132.1c-0.1,1-0.2,2-0.4,2.9c-0.1,0.4-0.2,0.7-0.3,1
			c-1.1,2.7-3.9,4-7.6,3.6c-3.1-0.4-5-2.2-5.4-5.1c-0.3-1.7-0.3-3.3,0-5c0.6-3.3,2.9-5.3,6.3-5.4c0.8,0,1.6,0,2.3,0.1
			c2.9,0.6,4.6,2.8,4.9,5.9c0.1,0.6,0,1.2,0,1.9C588,132.1,588.1,132.1,588.1,132.1z M577.2,131.8c-0.1,0-0.1,0-0.2,0
			c0.2,1.2,0.2,2.5,0.5,3.7c0.5,1.7,1.8,2.5,3.7,2.5c1.8,0,3.1-0.8,3.5-2.5c0.6-2.3,0.6-4.7,0-7.1c-0.3-1.3-1.1-2.1-2.4-2.4
			c-2.6-0.7-4.9,0.8-5.2,3.5C577.1,130.3,577.2,131,577.2,131.8z"/>
		<path fill-rule="evenodd" clip-rule="evenodd" fill="#EF4123" d="M249.1,162.8c-0.1,1-0.2,2.1-0.4,3.1c-0.6,2.6-2.6,4.3-5.2,4.5
			c-1.2,0.1-2.4,0.1-3.6-0.1c-2.4-0.5-3.9-2-4.5-4.4c-0.4-1.9-0.5-3.8,0-5.7c0.8-3.6,3.4-5.4,7.3-5.1c3.8,0.2,6.1,2.7,6.2,6.5
			c0,0.5,0,0.9,0,1.4C249,162.8,249.1,162.8,249.1,162.8z M246.2,162.8c-0.1-1.2-0.2-2.3-0.4-3.3c-0.5-2-1.8-2.9-3.7-2.9
			c-1.8,0-3.4,1.1-3.7,2.9c-0.5,2.2-0.5,4.6,0.1,6.8c0.5,1.6,1.9,2.5,3.6,2.5c1.8,0,3.2-0.9,3.6-2.6
			C246,165.1,246,163.9,246.2,162.8z"/>
		<path fill-rule="evenodd" clip-rule="evenodd" fill="#EF4123" d="M470.8,162.7c-0.1,1.1-0.2,2.2-0.4,3.2c-0.6,2.5-2.6,4.2-5.2,4.4
			c-0.9,0.1-1.9,0.1-2.8,0c-2.8-0.2-4.7-2-5.2-4.8c-0.3-1.6-0.3-3.2-0.1-4.8c0.6-3.8,3.2-6.2,7.5-5.8c3.8,0.3,6,2.7,6.2,6.5
			c0,0.4,0,0.8,0,1.2C470.7,162.7,470.7,162.7,470.8,162.7z M467.9,162.9c-0.1-1.2-0.2-2.4-0.4-3.5c-0.4-1.8-1.7-2.8-3.5-2.8
			c-1.9-0.1-3.5,0.9-3.9,2.7c-0.6,2.3-0.6,4.7,0.1,7.1c0.5,1.6,1.9,2.5,3.6,2.5c1.7,0,3.1-0.9,3.6-2.5
			C467.6,165.2,467.7,164,467.9,162.9z"/>
		<path fill-rule="evenodd" clip-rule="evenodd" fill="#EF4123" d="M432.6,132c0,0.6,0,1.3,0,1.9c-0.3,3.2-2.2,5.3-5.4,5.7
			c-1.4,0.1-2.8,0-4.2-0.3c-1.9-0.4-3.2-1.8-3.7-3.7c-0.6-2.3-0.7-4.7,0-7.1c0.7-2.2,2.1-3.7,4.4-4.1c1.2-0.2,2.5-0.3,3.7-0.1
			c2.9,0.5,4.8,2.7,5.1,5.7C432.6,130.7,432.6,131.4,432.6,132C432.6,132,432.6,132,432.6,132z M421.6,131.8c0,0,0.1,0,0.1,0
			c0,0.6,0,1.2,0,1.9c0,0.4,0.1,0.8,0.2,1.2c0.4,2,1.7,3.1,3.7,3.1c2.1,0,3.5-1,3.9-3.1c0.4-2,0.4-4,0-6c-0.4-2-1.8-3.1-3.8-3.1
			c-1.9,0-3.4,1.1-3.8,3C421.8,129.8,421.7,130.8,421.6,131.8z"/>
		<path fill-rule="evenodd" clip-rule="evenodd" fill="#EF4123" d="M419.1,162.8c-0.2,1.1-0.2,2.3-0.5,3.4c-0.6,2.2-2,3.6-4.2,4
			c-1.5,0.3-3.2,0.2-4.8,0c-2.2-0.4-3.5-1.9-4.1-4.1c-0.5-1.9-0.5-3.8-0.1-5.7c0.7-3.6,3.3-5.6,7.2-5.4c3.9,0.2,6.1,2.6,6.3,6.5
			c0,0.5,0,0.9,0,1.4C419,162.8,419,162.8,419.1,162.8z M408,162.7c0.1,0.9,0.1,1.9,0.3,2.8c0.3,2,1.7,3.2,3.6,3.3
			c2,0.1,3.5-1,3.9-3c0.5-2.1,0.5-4.1,0-6.2c-0.5-2.1-1.9-3.1-3.9-3c-1.9,0.1-3.4,1.4-3.7,3.4C408.1,160.8,408.1,161.7,408,162.7z"
			/>
		<path fill-rule="evenodd" clip-rule="evenodd" fill="#EF4123" d="M344.4,162.8c-0.2,1.1-0.2,2.3-0.5,3.4c-0.7,2.4-2.4,3.8-5,4.1
			c-1,0.1-2.1,0.1-3.1,0c-2.5-0.2-4.3-1.7-4.9-4.1c-0.5-1.9-0.5-3.9-0.2-5.9c0.7-3.9,3.6-5.7,7.5-5.4c3.7,0.3,5.9,2.8,6,6.5
			c0,0.5,0,0.9,0,1.4C344.3,162.8,344.4,162.8,344.4,162.8z M333.3,162.6c0.1,1,0.2,2,0.3,3c0.4,2,1.8,3.1,3.7,3.2
			c2,0,3.5-1.1,3.9-3.1c0.4-2,0.4-4,0-6c-0.4-2-1.8-3.1-3.8-3.1c-1.9,0-3.4,1.1-3.8,3C333.4,160.5,333.4,161.5,333.3,162.6z"/>
		<path fill-rule="evenodd" clip-rule="evenodd" fill="#EF4123" d="M322.1,121.3c0-0.7,0-1.1,0-1.7c0.6-0.1,1.2-0.1,1.7-0.1
			c1.8,0,2.6,0.4,3.3,2.2c1.2,3,2.4,6.1,3.6,9.1c0.6,1.6,1.3,3.3,1.9,4.9c0.4,1.2,1,2,2.3,2.3c0.3,1.5,0.1,1.8-1.3,1.7
			c-1.5,0-2.4-0.8-3-2.1c-0.8-2.1-1.6-4.2-2.4-6.2c-0.2-0.5-0.4-1-0.8-1.7c-0.3,0.6-0.5,0.9-0.7,1.2c-0.9,2.2-1.8,4.4-2.7,6.7
			c-0.8,2-0.8,2-3.3,1.7c0.2-0.5,0.4-1.1,0.6-1.6c1.4-3.5,2.8-7,4.3-10.5c0.4-0.9,0.5-1.7,0-2.5c-0.2-0.3-0.3-0.7-0.4-1
			C324.9,122,324.1,121,322.1,121.3z"/>
		<path fill-rule="evenodd" clip-rule="evenodd" fill="#EF4123" d="M345.7,130.9c0,0.5,0,1,0,1.7c-0.7,0-1.3-0.1-1.9,0
			c-1,0.2-2.1,0.3-3,0.8c-1.4,0.7-1.5,2.4-0.3,3.5c1.5,1.4,5,1.4,6.5,0c0.5-0.5,0.7-1.2,1.2-2c0.6,0,1.4,0,2.3,0
			c0.2,1.5-0.6,2.5-1.7,3.3c-1.9,1.4-4.1,1.8-6.4,1.4c-1.3-0.2-2.6-0.6-3.6-1.2c-2.6-1.5-2.6-4.3-0.1-6.1c0.3-0.2,0.7-0.5,1.1-0.7
			c-0.4-0.4-0.8-0.7-1.2-1.1c-1.5-1.5-1.5-3.5,0.2-4.7c0.8-0.6,1.7-1,2.6-1.3c1.9-0.5,3.9-0.5,5.8,0.4c1.4,0.6,2.4,1.6,2.8,3.4
			c-0.8,0.1-1.6,0.1-2.3,0.2c-1.3-2.4-3.3-3.1-5.5-2.2c-1.1,0.5-1.7,1.3-1.7,2.2c0.1,0.9,0.8,1.8,1.9,2.1
			C343.3,130.7,344.4,130.7,345.7,130.9z"/>
		<path fill-rule="evenodd" clip-rule="evenodd" fill="#EF4123" d="M269,128.3c-0.9,0-1.7,0-2.4,0c-1.2-2.2-3.1-3-5.3-2.2
			c-1.1,0.4-1.8,1.2-1.8,2.1c0,1,0.7,1.9,1.9,2.2c1.1,0.2,2.2,0.3,3.4,0.4c0,0.4,0.1,0.9,0.1,1.6c-0.7,0-1.2,0-1.8,0.1
			c-1,0.2-2.1,0.3-3,0.7c-1.7,0.8-1.8,2.7-0.3,3.8c1.5,1.2,4.7,1.2,6.1-0.1c0.5-0.5,0.8-1.2,1.4-2.1c0.5,0,1.4,0,2.2,0
			c0.2,1.6-0.7,2.7-1.9,3.5c-1.9,1.2-4,1.6-6.1,1.2c-1.2-0.2-2.5-0.6-3.5-1.2c-2.7-1.5-2.8-4.4-0.2-6.2c0.3-0.2,0.7-0.5,1-0.7
			c-0.5-0.4-0.9-0.8-1.3-1.2c-1.3-1.4-1.2-3.1,0.1-4.4c0.3-0.3,0.7-0.6,1.1-0.8c2.5-1.2,5.1-1.3,7.7-0.2
			C267.8,125.5,268.7,126.5,269,128.3z"/>
		<path fill-rule="evenodd" clip-rule="evenodd" fill="#EF4123" d="M399.1,128.3c-0.9,0-1.6,0-2.4,0c-1.2-2.3-3.4-3.1-5.6-2
			c-1,0.5-1.6,1.3-1.5,2.1c0.1,1,0.8,1.7,1.7,2c0.6,0.2,1.3,0.2,2,0.3c0.5,0.1,1,0.1,1.6,0.1c0,0.6,0,1.1,0,1.7
			c-0.7,0-1.3-0.1-1.9,0c-1,0.2-2.1,0.4-3,0.8c-1.4,0.7-1.5,2.4-0.3,3.5c1.5,1.4,5,1.4,6.5-0.1c0.5-0.5,0.7-1.2,1.1-2
			c0.6,0,1.5,0,2.4,0c0.1,1.6-0.8,2.7-2,3.5c-1.9,1.2-4,1.6-6.1,1.2c-1.3-0.2-2.6-0.6-3.6-1.2c-2.5-1.5-2.6-4.3-0.2-6
			c0.4-0.3,0.8-0.5,1.2-0.8c-0.5-0.4-0.9-0.7-1.2-1.1c-1.4-1.4-1.4-3.3,0.1-4.7c0.3-0.2,0.6-0.5,0.9-0.6c2.7-1.4,5.4-1.4,8.1-0.1
			C398,125.7,398.9,126.6,399.1,128.3z"/>
		<path fill-rule="evenodd" clip-rule="evenodd" fill="#EF4123" d="M363.1,124.6c1,0,1.7,0,2.4,0c0.1,0.1,0.2,0.2,0.2,0.3
			c0,3.3,0.1,6.7,0,10c-0.1,2.7-1.5,4.1-4.2,4.7c-1.6,0.3-3.1,0.3-4.6-0.2c-2.1-0.6-3.3-2.1-3.4-4.2c-0.1-3.5,0-6.9,0-10.5
			c0.8,0,1.6,0,2.5,0c0,0.4,0.1,0.9,0.1,1.3c0,2.4,0,4.8,0,7.2c0,0.5,0,0.9,0,1.4c0.2,3.2,2.3,3.8,4.8,3.3c1.4-0.3,2.1-1.4,2.2-3
			c0.1-2.4,0-4.9,0-7.3C363.1,126.5,363.1,125.6,363.1,124.6z"/>
		<path fill-rule="evenodd" clip-rule="evenodd" fill="#EF4123" d="M591.4,124.6c0.9,0,1.7,0,2.6,0c0,0.5,0.1,1,0.1,1.4
			c0,2.5,0,5,0,7.5c0,0.4,0,0.8,0,1.2c0.2,2.8,3.1,4.3,5.5,2.8c1.1-0.7,1.4-1.7,1.4-2.9c0-2.5,0-5.1,0-7.6c0-0.7,0-1.4,0-2.3
			c0.9,0,1.7,0,2.5,0c0,0.4,0.1,0.8,0.1,1.2c0,2.7,0,5.4,0,8.1c0,3.7-1.9,5.6-5.7,5.7c-0.8,0-1.7,0-2.5-0.2c-2.6-0.6-4-2-4.1-4.6
			C591.3,131.5,591.4,128.1,591.4,124.6z"/>
		<path fill-rule="evenodd" clip-rule="evenodd" fill="#EF4123" d="M436,124.6c0.9,0,1.6,0,2.5,0c0,0.5,0.1,0.9,0.1,1.4
			c0,2.4,0,4.9,0,7.3c0,0.5,0,0.9,0.1,1.4c0.3,2.4,1.6,3.5,4.1,3.2c1.6-0.2,2.7-1.1,2.8-2.8c0.1-1.5,0.1-3,0.1-4.5c0-2,0-3.9,0-6
			c0.9,0,1.7,0,2.5,0c0,0.4,0.1,0.8,0.1,1.1c0,2.7,0,5.4,0,8.1c0,0.6-0.1,1.2-0.2,1.9c-0.4,2-1.7,3.2-3.6,3.7
			c-1.6,0.4-3.2,0.4-4.8,0c-2-0.5-3.3-1.8-3.6-3.9c-0.1-0.8-0.2-1.5-0.2-2.3c0-2.3,0-4.7,0-7C435.9,125.7,436,125.2,436,124.6z"/>
		<path fill-rule="evenodd" clip-rule="evenodd" fill="#EF4123" d="M483.6,155.4c0.9,0,1.7,0,2.5,0c0.1,0.4,0.1,0.8,0.1,1.1
			c0,2.8,0,5.5,0,8.3c0,3.6-1.9,5.5-5.5,5.6c-0.6,0-1.2,0-1.9,0c-2.8-0.2-4.7-1.7-4.9-4.5c-0.2-3.4,0-6.8,0-10.4c0.9,0,1.6,0,2.5,0
			c0,0.6,0.1,1.1,0.1,1.6c0,2.4,0,4.8,0,7.2c0,0.4,0,0.8,0,1.2c0.3,2.8,2.9,4.2,5.4,2.9c1.2-0.6,1.6-1.7,1.6-3c0-2.7,0-5.4,0-8.1
			C483.6,156.6,483.6,156.1,483.6,155.4z"/>
		<path fill-rule="evenodd" clip-rule="evenodd" fill="#EF4123" d="M347.6,155.4c0.9,0,1.6,0,2.5,0c0,0.6,0.1,1.1,0.1,1.6
			c0,2.4,0,4.8,0,7.2c0,0.6,0,1.1,0.1,1.7c0.4,2,1.6,3,3.6,2.9c2-0.1,3.2-1.2,3.2-3.3c0.1-2.8,0-5.5,0-8.3c0-0.6,0-1.1,0-1.8
			c0.9,0,1.7,0,2.4,0c0.1,0.1,0.2,0.2,0.2,0.3c0,3.3,0.1,6.7,0,10c-0.1,2.8-1.9,4.5-4.7,4.6c-1.3,0.1-2.7,0-4-0.3
			c-2-0.4-3.1-1.8-3.3-3.8c-0.1-0.7-0.2-1.4-0.2-2.2c0-2.3,0-4.7,0-7C347.6,156.5,347.6,156,347.6,155.4z"/>
		<path fill-rule="evenodd" clip-rule="evenodd" fill="#EF4123" d="M494.6,125.9c0-0.6,0-1,0-1.4c2.3-0.7,3.6,0,4.4,2.2
			c0.8,2.1,1.6,4.3,2.4,6.4c0.2,0.5,0.4,0.9,0.7,1.7c1.5-3.5,2.6-6.8,4-10.2c0.8,0,1.6,0,2.6,0c-0.2,0.5-0.3,0.9-0.5,1.3
			c-1.4,3.4-2.9,6.9-4.3,10.3c-0.3,0.8-0.5,1.8-0.6,2.7c-0.1,1.3,0,2.6,0,3.9c0,0.5-0.1,0.9-0.1,1.4c-0.9,0-1.6,0-2.5,0
			c0-1.9,0-3.7,0-5.5c0-0.8-0.2-1.6-0.4-2.3c-1.1-2.8-2.2-5.5-3.3-8.2C496.6,127.1,496,126.1,494.6,125.9z"/>
		<path fill-rule="evenodd" clip-rule="evenodd" fill="#EF4123" d="M251,156.6c0-0.5,0-1,0-1.4c2.1-0.7,3.6,0,4.4,2
			c0.8,2.2,1.6,4.4,2.4,6.6c0.2,0.5,0.4,0.9,0.7,1.7c0.3-0.7,0.5-1.1,0.7-1.5c0.9-2.3,1.7-4.6,2.6-6.8c0.8-2.1,0.8-2.1,3.3-1.6
			c-0.2,0.5-0.3,1-0.5,1.4c-1.4,3.4-2.9,6.8-4.3,10.2c-0.3,0.8-0.5,1.7-0.5,2.5c-0.1,1.7,0,3.4,0,5.2c-0.9,0-1.6,0-2.6,0
			c0-0.6-0.1-1.3-0.1-1.9c0.3-3.3-0.4-6.4-1.8-9.3c-0.7-1.4-1.2-3-1.8-4.5C252.9,158,252.4,156.9,251,156.6z"/>
		<path fill-rule="evenodd" clip-rule="evenodd" fill="#EF4123" d="M328.1,155.5c-2.1,2-3.9,3.8-5.9,5.7c2.2,2.9,4.3,5.7,6.4,8.6
			c-0.4,0.1-0.5,0.2-0.6,0.2c-2.2,0.1-2.2,0.1-3.6-1.7c-1.3-1.8-2.6-3.5-3.9-5.3c-1.2,0.7-2,1.5-1.9,3c0.1,1.3,0,2.6,0,4
			c-0.8,0-1.5,0-2.4,0c0-4.8,0-9.5,0-14.4c0.7,0,1.5,0,2.4,0c0,2,0,4,0,6.2c0.5-0.4,0.8-0.6,1-0.8c1.4-1.4,2.9-2.7,4.2-4.2
			C325,155.3,326.2,155.1,328.1,155.5z"/>
		<path fill-rule="evenodd" clip-rule="evenodd" fill="#EF4123" d="M569.2,161.3c2.2,2.9,4.2,5.7,6.4,8.6c-1.2,0-2.1,0-3.1,0
			c-1.7-2.3-3.4-4.6-5.1-6.9c-1.4,0.7-2,1.7-1.9,3.2c0.1,1.2,0,2.4,0,3.7c-0.8,0-1.5,0-2.2,0c-0.3-1.1-0.4-12.8,0-14.5
			c0.7,0,1.4,0,2.2,0c0,2,0,4,0,6.2c0.5-0.4,0.8-0.5,1-0.7c1.4-1.4,2.8-2.7,4-4.1c1.1-1.3,2.4-1.8,4.2-1.2
			C573.1,157.5,571.1,159.2,569.2,161.3z"/>
		<path fill-rule="evenodd" clip-rule="evenodd" fill="#EF4123" d="M572.4,139.2c-0.6,0.1-0.8,0.1-1.1,0.1c-1.4,0.2-2.3-0.3-3.1-1.5
			c-1-1.5-2.1-3-3.2-4.4c-0.3-0.4-0.6-0.7-0.9-1.1c-1.2,0.8-1.9,1.6-1.8,3.1c0.1,1.2,0,2.5,0,3.8c-0.8,0-1.5,0-2.2,0
			c-0.4-1.1-0.5-12.6-0.1-14.5c0.7,0,1.4,0,2.3,0c0,2,0,4,0,6.3c0.7-0.6,1.1-0.9,1.4-1.3c1.3-1.3,2.7-2.5,3.8-3.9
			c1.1-1.3,2.3-1.5,4.1-1.1c-1,1-2,2-2.9,2.9c-1,0.9-2,1.8-3,2.8C568.1,133.4,570.2,136.2,572.4,139.2z"/>
		<path fill-rule="evenodd" clip-rule="evenodd" fill="#EF4123" d="M389.7,155.3c1.1,0,1.9,0,2.9,0c1.3,3.7,2.5,7.5,3.8,11.2
			c0.1,0,0.2,0,0.3,0c1.4-3.7,2.5-7.5,3.9-11.1c0.9,0,1.7,0,2.7,0c-1.8,5-3.6,9.8-5.4,14.6c-1,0-1.9,0-3,0
			C393.2,165.1,391.5,160.3,389.7,155.3z"/>
		<path fill-rule="evenodd" clip-rule="evenodd" fill="#EF4123" d="M447.8,156.7c-1.6,0-3,0-4.4,0c-0.3-1.4-0.3-1.5,0.6-1.5
			c3.6,0,7.2,0,10.8,0c0.1,0,0.2,0.1,0.4,0.2c0,0.3,0,0.6,0.1,1.2c-1.5,0.1-3,0.1-4.6,0.2c0,0.5-0.1,1-0.1,1.4c0,2.3,0,4.7,0,7
			c0,2.7,0.1,2.8,2.6,3.4c0,0.4,0,0.8,0,1.4c-0.8,0-1.6,0.1-2.4,0c-1.5-0.1-2.5-1-2.7-2.5c-0.1-0.7-0.2-1.3-0.2-2c0-2.3,0-4.7,0-7
			C447.8,158,447.8,157.4,447.8,156.7z"/>
		<path fill-rule="evenodd" clip-rule="evenodd" fill="#EF4123" d="M206.2,126c-1.6,0-3,0-4.6,0c0-0.6,0-1,0-1.5c4,0,7.9,0,12,0
			c0,0.4,0.1,0.8,0.1,1.4c-1.6,0-3.1,0-4.6,0c-0.1,0.6-0.2,1-0.2,1.4c0,2.6,0,5.2,0,7.8c0,0.3,0,0.5,0,0.8c0.2,1.2,0.5,1.5,1.8,1.8
			c0.2,0,0.5,0.1,0.8,0.2c0,0.5,0,0.9-0.1,1.5c-0.6,0-1.1,0.1-1.6,0.1c-2.3,0-3.5-1.2-3.5-3.4c-0.1-2.7,0-5.4,0-8.1
			C206.3,127.3,206.2,126.7,206.2,126z"/>
		<path fill-rule="evenodd" clip-rule="evenodd" fill="#EF4123" d="M555.7,155.3c1,0,1.8,0,2.7,0c0,0.7,0,1.3,0,1.9
			c0,2.8,0,5.6,0,8.4c0,2.3,0.1,2.4,2.3,3c0,0.4,0,0.8,0,1.3c-1,0-2,0.1-2.9,0c-1.3-0.2-2.1-1.4-2.1-2.9c0-1.4,0-2.8,0-4.2
			c0-2,0-3.9,0-5.9C555.7,156.4,555.7,155.9,555.7,155.3z"/>
		<path fill-rule="evenodd" clip-rule="evenodd" fill="#EF4123" d="M308.7,155.3c1,0,1.8,0,2.6,0c0,0.5,0.1,1,0.1,1.4c0,3,0,6,0,9
			c0,2.2,0.1,2.3,2.3,2.9c0,0.4,0.1,0.8,0.1,1.2c-1.1,0.5-2.1,0.3-3.1,0.1c-1.2-0.3-2-1.5-2-3c0-1.9,0-3.7,0-5.6
			C308.7,159.3,308.7,157.4,308.7,155.3z"/>
		<path fill-rule="evenodd" clip-rule="evenodd" fill="#EF4123" d="M422.5,155.3c0.9,0,1.7,0,2.5,0c0,0.5,0.1,1,0.1,1.4c0,3,0,6,0,9
			c0,2.2,0.1,2.3,2.3,2.9c0,0.4,0,0.8,0,1.3c-0.5,0-1,0.1-1.4,0.1c-2.5,0-3.6-1.1-3.6-3.6c0-3.3,0-6.5,0-9.8
			C422.4,156.3,422.4,155.8,422.5,155.3z"/>
		<path fill-rule="evenodd" clip-rule="evenodd" fill="#EF4123" d="M511.4,124.6c1,0,1.7,0,2.6,0c0,0.5,0.1,1,0.1,1.4
			c0,3,0,5.9,0,8.9c0,2.3,0.1,2.4,2.3,3c0,0.4,0,0.9,0,1.5c-0.8,0-1.6,0.1-2.4,0c-1.5-0.2-2.6-1.2-2.6-2.7
			C511.4,132.7,511.4,128.7,511.4,124.6z"/>
		<path fill-rule="evenodd" clip-rule="evenodd" fill="#EF4123" d="M232.6,124.6c1,0,1.7,0,2.6,0c0,0.6,0.1,1.1,0.1,1.7
			c0,2.9,0,5.8,0,8.7c0,2.2,0.2,2.4,2.3,2.9c0,0.4,0,0.9,0.1,1.4c-0.5,0-1,0.1-1.4,0.1c-2.5,0-3.7-1.1-3.7-3.6c0-3,0-5.9,0-8.9
			C232.6,126.2,232.6,125.5,232.6,124.6z"/>
		<path fill-rule="evenodd" clip-rule="evenodd" fill="#EF4123" d="M552.8,124.6c0.8,0,1.6,0,2.4,0c0,0.6,0.1,1.1,0.1,1.6
			c0,3,0,5.9,0,8.9c0,2.1,0.1,2.2,2.2,2.8c0,0.4,0,0.9,0,1.5c-1-0.1-1.9,0-2.8-0.2c-1.3-0.3-2.1-1.2-2.1-2.5c0-3.9,0-7.9,0-11.8
			C552.6,124.8,552.6,124.7,552.8,124.6z"/>
		<path fill-rule="evenodd" clip-rule="evenodd" fill="#EF4123" d="M267.6,155.3c1,0,1.8,0,2.7,0c0,0.7,0,1.2,0,1.8
			c0,2.7,0,5.4,0,8.1c0,0.5,0,0.9,0,1.4c0,1,0.5,1.7,1.5,1.9c0.2,0,0.5,0.1,0.8,0.2c0,0.5,0,0.9,0,1.4c-1,0-1.9,0.1-2.8,0
			c-1.3-0.2-2.1-1.3-2.3-2.8c-0.1-0.7,0-1.5,0-2.2c0-2.7,0-5.3,0-8C267.6,156.5,267.6,156,267.6,155.3z"/>
		<path fill-rule="evenodd" clip-rule="evenodd" fill="#EF4123" d="M272.8,124.6c1,0,1.7,0,2.6,0c0,0.6,0.1,1.1,0.1,1.6
			c0,3,0,5.9,0,8.9c0,2.2,0.1,2.3,2.3,2.9c0,0.4,0,0.9,0,1.4c-0.9,0-1.7,0.1-2.5,0c-1.4-0.2-2.4-1.2-2.4-2.6
			C272.8,132.7,272.8,128.7,272.8,124.6z"/>
		<path fill-rule="evenodd" clip-rule="evenodd" fill="#EF4123" d="M623.4,119.3c-0.1,0.4-0.3,0.9-0.4,1.3
			c-2.7,6.6-5.4,13.2-8.2,19.9c-0.5,1.3-0.5,1.3-2.1,1.1c0.1-0.3,0.1-0.7,0.3-1c2.8-6.8,5.5-13.5,8.3-20.3
			C621.9,119,621.9,119,623.4,119.3z"/>
		<path fill-rule="evenodd" clip-rule="evenodd" fill="#EF4123" d="M358,150.4c-1.1,0.9-2.1,1.8-3.2,2.7c-0.5,0.4-1.1,0.6-1.9,0.3
			c0.7-1.2,1.5-2.3,2.5-3c0.6-0.4,1.6-0.2,2.5-0.3C357.9,150.2,357.9,150.3,358,150.4z"/>
		<path fill-rule="evenodd" clip-rule="evenodd" fill="#EF4123" d="M525.2,153.3c0.8-1,1.5-1.9,2.3-2.7c0.2-0.3,0.7-0.4,1.1-0.4
			c0.6-0.1,1.1,0,2,0c-0.9,0.9-1.7,1.5-2.5,2.1C527.3,152.9,526.7,153.9,525.2,153.3z"/>
		<path fill-rule="evenodd" clip-rule="evenodd" fill="#EF4123" d="M484.3,150.4c-1.2,1-2.3,2-3.5,2.9c-0.3,0.2-0.9,0.2-1.4,0.2
			c0-0.1-0.1-0.2-0.1-0.3c0.8-0.9,1.5-2,2.4-2.8C482.3,149.7,483.3,150.2,484.3,150.4z"/>
		<path fill-rule="evenodd" clip-rule="evenodd" fill="#EF4123" d="M601.5,119.8c-1,0.8-2,1.6-3,2.5c-0.6,0.5-1.2,0.7-2.1,0.4
			c0.8-1,1.6-2,2.4-2.9c0.8-0.8,1.7-0.2,2.6-0.4C601.5,119.6,601.5,119.7,601.5,119.8z"/>
		<path fill-rule="evenodd" clip-rule="evenodd" fill="#EF4123" d="M363.7,119.8c-1,0.9-2,1.8-3.1,2.5c-0.5,0.3-1.2,0.4-1.8,0.6
			c-0.1-0.1-0.1-0.2-0.2-0.3c0.8-0.9,1.5-1.9,2.4-2.8C361.7,119.1,362.7,119.5,363.7,119.8z"/>
		<path fill-rule="evenodd" clip-rule="evenodd" fill="#EF4123" d="M273.5,122.7c0.8-1,1.5-1.9,2.3-2.8c0.2-0.2,0.6-0.4,0.9-0.4
			c0.6-0.1,1.1,0,1.8,0.2c-0.8,0.7-1.5,1.3-2.3,2C275.5,122.3,274.9,123.2,273.5,122.7z"/>
	</g>
	<g>
		<path fill-rule="evenodd" clip-rule="evenodd" fill="#F58220" d="M8.7,78.7c0-0.1,0.1-0.3,0.1-0.4c0.2-2.4,0.4-4.8,0.8-7.1
			c0.7-4.1,1.8-8,3.3-11.9c2.6-6.8,6.3-13,11.1-18.6c3.7-4.3,7.9-8.1,12.6-11.3c5.1-3.5,10.6-6.1,16.5-8c3.7-1.2,7.5-2,11.4-2.5
			c2-0.2,4-0.4,6.1-0.5c0.2,0,0.5,0,0.8,0c0,10.4,0,20.8,0,31.1c-9.7,0.6-17.8,4.5-24,12c-5.1,6.2-7.6,13.5-7.3,21.5
			c0.5,17.9,15.5,32,33.4,31.5c10-0.3,18.2-4.4,24.5-12.2c6.2-7.8,8.2-16.7,6.5-26.6c10.5,0,20.9,0,31.4,0c0,0.5,0.1,1,0.1,1.5
			c0.1,1.7,0.2,3.5,0.2,5.2c0,6.3-1,12.5-2.8,18.5c-1.8,5.9-4.5,11.5-8,16.6c-1.9,2.8-4,5.5-6.4,8c-4.6,4.9-9.7,8.9-15.5,12.2
			c-6.2,3.4-12.8,5.8-19.7,7c-2.3,0.4-4.6,0.7-6.9,0.9c-2.4,0.2-4.8,0.2-7.2,0.1c-5.5-0.2-10.9-1.2-16.2-2.8
			c-4.9-1.5-9.6-3.6-14-6.3c-3.8-2.3-7.3-5-10.6-8.1c-5.2-4.9-9.4-10.4-12.7-16.7c-3.1-5.8-5.2-12-6.4-18.5
			c-0.4-2.3-0.7-4.5-0.8-6.8c0-0.3,0.1-0.7-0.2-1C8.7,83.3,8.7,81,8.7,78.7z"/>
		<path fill-rule="evenodd" clip-rule="evenodd" fill="#FCAF17" d="M114.9,66.4c-1.6-7.8-5.5-14.2-11.7-19.1
			c-6.2-4.9-13.4-7.2-21.3-7c0-10.4,0-20.8,0-31.2c5.3-0.1,10.5,0.4,15.6,1.6c10.1,2.4,19.1,6.9,27,13.7
			c7.8,6.7,13.6,14.7,17.5,24.2c2.4,5.7,3.8,11.7,4.4,17.8C146,66.5,115.7,66.5,114.9,66.4z"/>
	</g>
</g>
</svg>
